<?xml version="1.0" standalone="no"?>
<!DOCTYPE svg PUBLIC "-//W3C//DTD SVG 20010904//EN"
 "http://www.w3.org/TR/2001/REC-SVG-20010904/DTD/svg10.dtd">
<svg version="1.0" xmlns="http://www.w3.org/2000/svg"
 width="986.000000pt" height="986.000000pt" viewBox="0 0 986.000000 986.000000"
 preserveAspectRatio="xMidYMid meet">
<metadata>
Created by potrace 1.11, written by Peter Selinger 2001-2013
</metadata>
<g transform="translate(0.000000,986.000000) scale(0.100000,-0.100000)"
fill="#000000" stroke="none">
<path d="M3205 7525 c-218 -47 -393 -207 -472 -430 l-28 -80 -3 -418 -3 -418
-99 94 c-108 104 -167 139 -271 158 -76 14 -156 3 -241 -32 -47 -20 -161 -130
-1020 -988 -1047 -1044 -1013 -1007 -1042 -1147 -13 -60 -13 -78 0 -137 29
-138 6 -112 857 -966 914 -916 840 -856 1032 -856 105 0 114 2 180 34 62 30
101 65 336 298 l266 264 16 -83 c48 -242 235 -440 477 -505 61 -17 175 -18
1755 -18 1401 0 1699 2 1745 14 83 21 193 74 261 127 136 107 239 304 239 456
0 26 3 48 7 48 4 0 118 -110 253 -245 213 -211 256 -249 311 -275 36 -16 85
-33 109 -38 105 -19 226 6 312 66 24 17 390 378 815 804 803 805 802 804 833
918 27 101 6 235 -53 326 -14 21 -457 470 -984 996 -1083 1082 -997 1007
-1169 1016 -147 7 -232 -30 -354 -153 -35 -36 -68 -65 -72 -65 -4 0 -8 156 -8
348 0 272 -4 361 -15 410 -55 231 -257 428 -490 477 -99 21 -3385 21 -3480 0z
m3480 -110 c138 -36 274 -143 334 -264 18 -35 31 -65 29 -66 -2 -2 -18 25 -36
60 -38 73 -110 151 -178 195 -26 16 -51 30 -55 30 -4 0 8 -28 27 -63 74 -141
69 18 69 -2004 0 -1317 3 -1809 11 -1805 58 35 128 122 159 198 14 32 25 52
25 44 0 -35 -63 -144 -112 -194 -57 -57 -161 -113 -263 -143 -56 -17 -164 -18
-1552 -21 l-1493 -2 0 2025 0 2025 1488 0 c1304 0 1495 -2 1547 -15z m393
-455 l-1 -35 -6 40 c-4 22 -10 56 -14 75 -6 34 -6 34 8 -5 7 -22 13 -56 13
-75z m2595 -2495 c-1 -64 -31 -144 -89 -231 -56 -85 -1421 -1458 -1471 -1480
-98 -43 -223 19 -253 124 -12 46 -12 48 1 97 9 34 110 140 714 745 492 494
715 724 744 769 55 86 81 160 83 238 l2 64 135 -138 134 -138 0 -50z m-9163 6
l43 -86 717 -720 c772 -774 748 -747 737 -842 -10 -91 -109 -169 -200 -159
-27 3 -63 14 -80 25 -18 11 -339 327 -714 703 -715 717 -752 758 -802 894 -12
30 -21 76 -21 102 0 47 1 48 133 185 l132 138 6 -77 c6 -61 15 -93 49 -163z
m6567 -698 c-3 -10 -5 -2 -5 17 0 19 2 27 5 18 2 -10 2 -26 0 -35z m-6 -857
c-62 -100 -284 -188 -547 -216 -79 -8 -507 -10 -1559 -8 l-1450 3 -47 23
c-109 55 -162 140 -162 262 0 121 54 208 163 262 l46 23 1565 5 1565 5 80 23
c120 35 217 86 293 157 l67 63 3 -285 c2 -269 1 -287 -17 -317z m-52 -237
c-42 -78 -129 -166 -205 -206 -72 -38 -164 -66 -201 -60 -27 4 -27 4 3 6 97 4
243 78 319 162 46 50 90 117 82 125 -3 3 -23 -4 -45 -15 -47 -24 -184 -71
-204 -70 -7 0 26 13 74 29 93 31 182 73 193 90 4 6 9 9 12 6 3 -2 -10 -32 -28
-67z m-289 -69 c-14 -4 -36 -8 -50 -8 -22 0 -22 1 5 8 17 4 39 8 50 8 16 0 15
-2 -5 -8z m-95 -18 c-11 -4 -40 -19 -65 -34 -25 -14 -76 -37 -115 -50 l-70
-23 -1367 -3 -1368 -2 0 50 0 50 1413 1 c776 1 1437 4 1467 9 71 9 133 10 105
2z m-575 -185 c289 -1 -136 -3 -943 -5 -808 -1 -1466 1 -1464 6 5 6 1017 6
2407 -1z"/>
<path d="M4208 6058 l-3 -583 -192 -130 c-106 -71 -193 -132 -192 -135 0 -3
88 -63 195 -134 l194 -129 0 -619 0 -619 808 3 c801 3 807 4 877 26 259 82
451 244 570 481 113 227 115 523 5 759 -40 86 -115 194 -168 245 l-29 28 42
63 c93 140 138 293 138 471 0 247 -82 434 -270 616 -106 102 -206 163 -348
210 l-70 24 -777 3 -778 3 -2 -583z m1517 -24 c94 -51 148 -143 148 -253 0
-114 -58 -208 -155 -252 -53 -24 -54 -24 -490 -27 l-438 -3 0 281 0 281 448
-3 c435 -3 448 -4 487 -24z m70 -1144 c69 -34 129 -99 155 -168 18 -46 21 -72
18 -137 -7 -131 -66 -217 -188 -274 l-55 -26 -467 -3 -468 -3 0 321 0 321 478
-3 477 -3 50 -25z"/>
</g>
</svg>
